<svg xmlns="http://www.w3.org/2000/svg" xmlns:xlink="http://www.w3.org/1999/xlink" width="500" zoomAndPan="magnify" viewBox="0 0 375 374.999991" height="500" preserveAspectRatio="xMidYMid meet" version="1.0"><defs><g/><clipPath id="39dcbf9d15"><path d="M 99.296875 62.054688 L 271.046875 62.054688 L 271.046875 233.804688 L 99.296875 233.804688 Z M 99.296875 62.054688 " clip-rule="nonzero"/></clipPath><clipPath id="7899351bb6"><path d="M 185.171875 62.054688 C 137.742188 62.054688 99.296875 100.503906 99.296875 147.929688 C 99.296875 195.359375 137.742188 233.804688 185.171875 233.804688 C 232.597656 233.804688 271.046875 195.359375 271.046875 147.929688 C 271.046875 100.503906 232.597656 62.054688 185.171875 62.054688 " clip-rule="nonzero"/></clipPath><clipPath id="82726b3452"><path d="M 103.304688 66.066406 L 266.804688 66.066406 L 266.804688 229.566406 L 103.304688 229.566406 Z M 103.304688 66.066406 " clip-rule="nonzero"/></clipPath><clipPath id="bbcfb93a66"><path d="M 185.054688 66.066406 C 139.90625 66.066406 103.304688 102.667969 103.304688 147.816406 C 103.304688 192.964844 139.90625 229.566406 185.054688 229.566406 C 230.203125 229.566406 266.804688 192.964844 266.804688 147.816406 C 266.804688 102.667969 230.203125 66.066406 185.054688 66.066406 " clip-rule="nonzero"/></clipPath><clipPath id="ac68eec6cd"><path d="M 141 79.414062 L 226 79.414062 L 226 194 L 141 194 Z M 141 79.414062 " clip-rule="nonzero"/></clipPath></defs><rect x="-37.5" width="450" fill="#ffffff" y="-37.499999" height="449.999989" fill-opacity="1"/><rect x="-37.5" width="450" fill="#ffffff" y="-37.499999" height="449.999989" fill-opacity="1"/><rect x="-37.5" width="450" fill="#fafaff" y="-37.499999" height="449.999989" fill-opacity="1"/><g clip-path="url(#39dcbf9d15)"><g clip-path="url(#7899351bb6)"><path stroke-linecap="butt" transform="matrix(0.750871, 0, 0, 0.750871, 99.294982, 62.056306)" fill="none" stroke-linejoin="miter" d="M 114.369709 -0.00215593 C 51.203479 -0.00215593 0.0025211 51.204004 0.0025211 114.365032 C 0.0025211 177.531262 51.203479 228.73222 114.369709 228.73222 C 177.530736 228.73222 228.736897 177.531262 228.736897 114.365032 C 228.736897 51.204004 177.530736 -0.00215593 114.369709 -0.00215593 " stroke="#3071cd" stroke-width="2" stroke-opacity="1" stroke-miterlimit="4"/></g></g><g clip-path="url(#82726b3452)"><g clip-path="url(#bbcfb93a66)"><path stroke-linecap="butt" transform="matrix(0.749839, 0, 0, 0.749839, 103.304638, 66.065957)" fill="none" stroke-linejoin="miter" d="M 109.023504 0.00059878 C 48.812643 0.00059878 0.0000663925 48.813176 0.0000663925 109.024036 C 0.0000663925 169.234897 48.812643 218.047474 109.023504 218.047474 C 169.234365 218.047474 218.046942 169.234897 218.046942 109.024036 C 218.046942 48.813176 169.234365 0.00059878 109.023504 0.00059878 " stroke="#3071cd" stroke-width="8" stroke-opacity="1" stroke-miterlimit="4"/></g></g><g clip-path="url(#ac68eec6cd)"><path fill="#26629b" d="M 154.238281 180.769531 C 156.410156 181.261719 158.613281 181.515625 160.84375 181.535156 C 161.839844 181.535156 162.835938 181.484375 163.824219 181.40625 C 160.417969 179.113281 157.496094 176.3125 155.0625 173.011719 L 154.347656 164.988281 L 153.410156 164.988281 C 153.054688 164.988281 152.714844 164.921875 152.382812 164.785156 C 152.054688 164.648438 151.765625 164.453125 151.515625 164.203125 C 151.261719 163.953125 151.070312 163.664062 150.933594 163.335938 C 150.796875 163.007812 150.726562 162.664062 150.726562 162.308594 L 150.726562 148.511719 C 150.726562 148.171875 150.761719 147.832031 150.828125 147.496094 C 150.894531 147.164062 150.992188 146.839844 151.125 146.523438 C 151.253906 146.207031 151.414062 145.90625 151.605469 145.625 C 151.792969 145.339844 152.011719 145.078125 152.25 144.835938 C 152.492188 144.59375 152.757812 144.378906 153.039062 144.191406 C 153.324219 144 153.625 143.839844 153.941406 143.710938 C 154.257812 143.578125 154.582031 143.480469 154.917969 143.414062 C 155.253906 143.347656 155.589844 143.316406 155.933594 143.316406 L 158.316406 143.316406 C 158.542969 143.316406 158.746094 143.253906 158.929688 143.117188 C 159.109375 142.984375 159.234375 142.8125 159.300781 142.59375 C 159.367188 142.378906 159.363281 142.164062 159.289062 141.953125 C 159.214844 141.742188 159.082031 141.570312 158.894531 141.445312 C 157.96875 140.859375 157.242188 140.085938 156.714844 139.125 C 156.1875 138.167969 155.925781 137.140625 155.925781 136.046875 L 155.925781 134.964844 C 155.925781 134.519531 155.972656 134.074219 156.0625 133.636719 C 156.15625 133.199219 156.292969 132.777344 156.476562 132.371094 C 156.65625 131.960938 156.878906 131.574219 157.140625 131.214844 C 157.402344 130.851562 157.699219 130.519531 158.03125 130.21875 C 158.363281 129.917969 158.722656 129.65625 159.109375 129.433594 C 159.496094 129.207031 159.902344 129.023438 160.328125 128.882812 C 160.753906 128.742188 161.1875 128.648438 161.632812 128.597656 C 162.078125 128.550781 162.523438 128.546875 162.96875 128.589844 C 166.304688 128.90625 168.746094 131.886719 168.746094 135.238281 L 168.746094 136.058594 C 168.746094 137.152344 168.484375 138.179688 167.957031 139.140625 C 167.429688 140.097656 166.703125 140.871094 165.78125 141.457031 C 165.59375 141.585938 165.464844 141.753906 165.390625 141.96875 C 165.316406 142.179688 165.3125 142.390625 165.382812 142.605469 C 165.449219 142.820312 165.570312 142.996094 165.753906 143.128906 C 165.933594 143.261719 166.136719 143.328125 166.363281 143.328125 L 168.742188 143.328125 C 169.578125 143.328125 170.367188 143.519531 171.109375 143.902344 C 171.847656 144.28125 172.464844 144.8125 172.949219 145.488281 C 172.015625 145.777344 171.148438 146.207031 170.351562 146.773438 C 169.550781 147.339844 168.863281 148.015625 168.28125 148.800781 C 167.699219 149.589844 167.253906 150.445312 166.949219 151.375 C 166.640625 152.304688 166.488281 153.257812 166.484375 154.234375 L 166.484375 173.226562 C 166.484375 173.664062 166.550781 174.089844 166.675781 174.507812 C 166.804688 174.925781 166.988281 175.316406 167.230469 175.679688 C 167.472656 176.042969 167.761719 176.363281 168.101562 176.640625 C 168.4375 176.917969 168.808594 177.140625 169.210938 177.3125 L 168.90625 180.691406 C 170.800781 180.285156 172.652344 179.734375 174.460938 179.042969 L 173.671875 175.050781 L 170.921875 175.050781 C 170.679688 175.050781 170.449219 175.003906 170.222656 174.910156 C 170 174.820312 169.804688 174.6875 169.632812 174.515625 C 169.460938 174.347656 169.328125 174.148438 169.234375 173.925781 C 169.144531 173.703125 169.097656 173.46875 169.097656 173.226562 L 169.097656 154.222656 C 169.097656 153.792969 169.140625 153.363281 169.226562 152.941406 C 169.308594 152.519531 169.433594 152.109375 169.601562 151.710938 C 169.765625 151.3125 169.96875 150.9375 170.207031 150.578125 C 170.449219 150.21875 170.71875 149.886719 171.027344 149.582031 C 171.332031 149.277344 171.664062 149.007812 172.023438 148.769531 C 172.382812 148.527344 172.761719 148.328125 173.160156 148.160156 C 173.558594 147.996094 173.96875 147.871094 174.390625 147.789062 C 174.816406 147.703125 175.242188 147.664062 175.675781 147.664062 L 178.683594 147.664062 C 178.96875 147.664062 179.226562 147.582031 179.457031 147.414062 C 179.6875 147.246094 179.84375 147.023438 179.929688 146.753906 C 180.015625 146.480469 180.007812 146.210938 179.914062 145.941406 C 179.820312 145.671875 179.65625 145.457031 179.417969 145.296875 C 178.84375 144.933594 178.324219 144.503906 177.855469 144.007812 C 177.390625 143.511719 176.992188 142.964844 176.664062 142.367188 C 176.335938 141.773438 176.089844 141.144531 175.917969 140.488281 C 175.75 139.828125 175.667969 139.160156 175.667969 138.480469 L 175.667969 137.09375 C 175.667969 136.5625 175.71875 136.039062 175.820312 135.515625 C 175.925781 134.996094 176.078125 134.492188 176.285156 134 C 176.488281 133.511719 176.738281 133.042969 177.03125 132.601562 C 177.328125 132.160156 177.664062 131.753906 178.039062 131.378906 C 178.417969 131.003906 178.824219 130.667969 179.269531 130.375 C 179.710938 130.078125 180.179688 129.832031 180.667969 129.628906 C 181.160156 129.425781 181.667969 129.273438 182.1875 129.167969 C 182.710938 129.066406 183.238281 129.015625 183.769531 129.015625 C 183.8125 129.015625 183.851562 129.015625 183.894531 129.015625 C 183.933594 129.015625 183.976562 129.015625 184.015625 129.015625 C 184.550781 129.015625 185.078125 129.066406 185.597656 129.167969 C 186.121094 129.269531 186.628906 129.425781 187.121094 129.625 C 187.609375 129.828125 188.078125 130.078125 188.519531 130.371094 C 188.964844 130.667969 189.375 131 189.75 131.378906 C 190.125 131.753906 190.460938 132.160156 190.757812 132.601562 C 191.054688 133.042969 191.304688 133.507812 191.507812 134 C 191.710938 134.492188 191.867188 134.996094 191.96875 135.515625 C 192.074219 136.039062 192.125 136.5625 192.125 137.09375 L 192.125 138.464844 C 192.125 139.144531 192.042969 139.816406 191.871094 140.472656 C 191.703125 141.132812 191.457031 141.761719 191.128906 142.355469 C 190.800781 142.953125 190.402344 143.5 189.9375 143.996094 C 189.472656 144.492188 188.953125 144.921875 188.375 145.285156 C 188.140625 145.445312 187.976562 145.660156 187.878906 145.925781 C 187.785156 146.195312 187.78125 146.464844 187.863281 146.738281 C 187.949219 147.011719 188.105469 147.230469 188.335938 147.398438 C 188.566406 147.566406 188.824219 147.652344 189.109375 147.652344 L 192.121094 147.652344 C 192.550781 147.652344 192.980469 147.691406 193.402344 147.777344 C 193.828125 147.859375 194.238281 147.984375 194.636719 148.148438 C 195.035156 148.3125 195.414062 148.515625 195.773438 148.753906 C 196.132812 148.996094 196.464844 149.265625 196.769531 149.570312 C 197.074219 149.875 197.347656 150.207031 197.585938 150.566406 C 197.828125 150.921875 198.03125 151.300781 198.195312 151.699219 C 198.359375 152.097656 198.484375 152.507812 198.570312 152.929688 C 198.65625 153.351562 198.695312 153.777344 198.695312 154.210938 L 198.695312 173.226562 C 198.695312 173.46875 198.652344 173.703125 198.558594 173.925781 C 198.464844 174.148438 198.332031 174.34375 198.164062 174.515625 C 197.992188 174.683594 197.792969 174.816406 197.570312 174.90625 C 197.347656 175 197.113281 175.046875 196.871094 175.046875 L 194.125 175.046875 L 192.855469 181.417969 C 193.304688 183.964844 192.246094 186.847656 190.046875 188.777344 C 188.1875 190.429688 186.160156 191.839844 183.960938 193.007812 C 187.941406 193 191.84375 192.433594 195.664062 191.308594 C 197.351562 190.265625 198.921875 189.066406 200.375 187.714844 C 201.691406 186.429688 203.160156 185.351562 204.78125 184.476562 C 205.941406 183.855469 207.179688 183.535156 208.496094 183.511719 C 209.03125 183.511719 209.558594 183.582031 210.078125 183.714844 C 211.109375 182.886719 212.097656 182.011719 213.046875 181.089844 C 213.992188 180.167969 214.894531 179.203125 215.75 178.195312 C 216.605469 177.1875 217.410156 176.140625 218.167969 175.058594 C 218.921875 173.972656 219.625 172.855469 220.277344 171.707031 C 220.925781 170.554688 221.519531 169.378906 222.054688 168.171875 C 222.59375 166.964844 223.074219 165.734375 223.496094 164.480469 C 223.914062 163.230469 224.273438 161.960938 224.574219 160.675781 C 224.875 159.386719 225.113281 158.089844 225.289062 156.78125 C 225.464844 155.472656 225.582031 154.160156 225.632812 152.839844 C 225.683594 151.519531 225.671875 150.199219 225.597656 148.882812 C 225.523438 147.5625 225.386719 146.25 225.191406 144.945312 C 224.992188 143.640625 224.730469 142.347656 224.410156 141.066406 C 224.085938 139.785156 223.703125 138.523438 223.261719 137.277344 C 222.820312 136.03125 222.320312 134.8125 221.761719 133.613281 C 221.203125 132.417969 220.589844 131.25 219.921875 130.109375 C 219.253906 128.96875 218.53125 127.863281 217.757812 126.792969 L 185.921875 80.535156 C 185.800781 80.359375 185.664062 80.203125 185.507812 80.066406 C 185.351562 79.925781 185.179688 79.808594 184.992188 79.710938 C 184.804688 79.613281 184.613281 79.539062 184.40625 79.488281 C 184.203125 79.4375 183.996094 79.410156 183.785156 79.410156 C 183.578125 79.410156 183.367188 79.4375 183.164062 79.488281 C 182.960938 79.539062 182.765625 79.613281 182.582031 79.710938 C 182.394531 79.808594 182.222656 79.925781 182.066406 80.066406 C 181.910156 80.203125 181.769531 80.359375 181.652344 80.535156 L 149.816406 126.792969 C 149.09375 127.789062 148.417969 128.816406 147.789062 129.871094 C 147.15625 130.925781 146.574219 132.007812 146.039062 133.117188 C 145.507812 134.222656 145.023438 135.351562 144.585938 136.5 C 144.152344 137.652344 143.769531 138.816406 143.4375 140 C 143.109375 141.183594 142.832031 142.382812 142.605469 143.589844 C 142.378906 144.796875 142.210938 146.011719 142.09375 147.238281 C 141.976562 148.460938 141.914062 149.6875 141.902344 150.914062 C 141.894531 152.144531 141.941406 153.371094 142.042969 154.597656 C 142.140625 155.820312 142.296875 157.039062 142.503906 158.25 C 142.714844 159.460938 142.972656 160.660156 143.289062 161.847656 C 143.605469 163.035156 143.96875 164.207031 144.390625 165.363281 C 144.808594 166.519531 145.277344 167.65625 145.796875 168.769531 C 146.316406 169.882812 146.882812 170.972656 147.5 172.039062 C 148.113281 173.101562 148.777344 174.136719 149.484375 175.140625 C 150.191406 176.148438 150.941406 177.121094 151.734375 178.058594 C 152.53125 179 153.363281 179.902344 154.238281 180.769531 Z M 199.042969 134.964844 C 199.042969 134.519531 199.089844 134.074219 199.183594 133.636719 C 199.273438 133.199219 199.414062 132.777344 199.59375 132.371094 C 199.773438 131.960938 199.996094 131.574219 200.257812 131.214844 C 200.519531 130.851562 200.816406 130.519531 201.148438 130.21875 C 201.480469 129.917969 201.839844 129.65625 202.226562 129.433594 C 202.613281 129.207031 203.019531 129.023438 203.445312 128.882812 C 203.871094 128.742188 204.304688 128.648438 204.75 128.597656 C 205.195312 128.550781 205.640625 128.546875 206.085938 128.589844 C 209.421875 128.90625 211.867188 131.886719 211.867188 135.238281 L 211.867188 136.058594 C 211.867188 137.152344 211.601562 138.179688 211.074219 139.140625 C 210.546875 140.097656 209.824219 140.871094 208.898438 141.457031 C 208.710938 141.582031 208.578125 141.753906 208.503906 141.964844 C 208.425781 142.179688 208.421875 142.390625 208.488281 142.609375 C 208.554688 142.824219 208.679688 142.996094 208.863281 143.132812 C 209.046875 143.265625 209.25 143.332031 209.476562 143.328125 L 211.859375 143.328125 C 212.199219 143.328125 212.539062 143.363281 212.875 143.429688 C 213.207031 143.496094 213.535156 143.59375 213.851562 143.722656 C 214.164062 143.855469 214.464844 144.015625 214.75 144.203125 C 215.035156 144.394531 215.296875 144.609375 215.539062 144.851562 C 215.78125 145.089844 215.996094 145.355469 216.1875 145.636719 C 216.375 145.921875 216.535156 146.21875 216.667969 146.535156 C 216.796875 146.851562 216.898438 147.175781 216.964844 147.511719 C 217.03125 147.84375 217.0625 148.183594 217.0625 148.523438 L 217.0625 162.308594 C 217.0625 162.664062 216.996094 163.007812 216.859375 163.335938 C 216.722656 163.664062 216.527344 163.953125 216.277344 164.203125 C 216.027344 164.453125 215.734375 164.648438 215.40625 164.785156 C 215.078125 164.921875 214.734375 164.988281 214.378906 164.988281 L 213.441406 164.988281 L 212.753906 172.609375 C 211.011719 175.058594 208.996094 177.253906 206.699219 179.191406 C 204.40625 181.132812 201.902344 182.753906 199.195312 184.0625 L 198.585938 177.320312 C 198.988281 177.152344 199.359375 176.925781 199.695312 176.648438 C 200.03125 176.371094 200.324219 176.050781 200.566406 175.6875 C 200.808594 175.324219 200.992188 174.933594 201.117188 174.515625 C 201.246094 174.097656 201.308594 173.671875 201.308594 173.238281 L 201.308594 154.222656 C 201.308594 153.246094 201.15625 152.292969 200.847656 151.363281 C 200.539062 150.433594 200.097656 149.578125 199.515625 148.789062 C 198.933594 148.003906 198.242188 147.328125 197.445312 146.761719 C 196.648438 146.195312 195.78125 145.765625 194.84375 145.476562 C 195.332031 144.796875 195.945312 144.269531 196.6875 143.890625 C 197.429688 143.507812 198.21875 143.316406 199.050781 143.316406 L 201.433594 143.316406 C 201.660156 143.316406 201.863281 143.253906 202.046875 143.117188 C 202.230469 142.984375 202.355469 142.8125 202.421875 142.59375 C 202.488281 142.378906 202.484375 142.164062 202.40625 141.953125 C 202.332031 141.742188 202.199219 141.570312 202.011719 141.445312 C 201.085938 140.859375 200.363281 140.085938 199.835938 139.125 C 199.308594 138.167969 199.042969 137.140625 199.042969 136.046875 Z M 170.664062 106.535156 L 178.894531 106.535156 L 178.894531 98.316406 L 188.679688 98.316406 L 188.679688 106.53125 L 196.90625 106.53125 L 196.90625 116.292969 L 188.679688 116.292969 L 188.679688 124.507812 L 178.894531 124.507812 L 178.894531 116.292969 L 170.664062 116.292969 Z M 170.664062 106.535156 " fill-opacity="1" fill-rule="nonzero"/></g><path fill="#513c86" d="M 192.308594 89.820312 L 206.207031 110.007812 C 207.035156 110.460938 207.851562 110.941406 208.652344 111.441406 C 209.453125 111.945312 210.238281 112.472656 211.003906 113.023438 C 211.773438 113.574219 212.523438 114.144531 213.257812 114.742188 C 213.992188 115.335938 214.707031 115.957031 215.402344 116.59375 C 216.097656 117.234375 216.773438 117.894531 217.429688 118.574219 C 218.085938 119.253906 218.71875 119.953125 219.332031 120.671875 C 219.945312 121.390625 220.535156 122.128906 221.101562 122.882812 C 221.671875 123.636719 222.214844 124.410156 222.738281 125.195312 C 223.257812 125.984375 223.753906 126.785156 224.226562 127.605469 C 224.699219 128.421875 225.144531 129.253906 225.566406 130.097656 C 225.988281 130.945312 226.382812 131.800781 226.753906 132.667969 C 227.121094 133.539062 227.464844 134.417969 227.78125 135.308594 C 228.097656 136.199219 228.386719 137.097656 228.644531 138.003906 C 228.90625 138.910156 229.140625 139.824219 229.34375 140.746094 C 229.550781 141.667969 229.726562 142.59375 229.875 143.527344 C 230.023438 144.460938 230.144531 145.394531 230.238281 146.335938 C 230.328125 147.273438 230.390625 148.214844 230.425781 149.160156 C 230.460938 150.101562 230.464844 151.046875 230.441406 151.988281 C 230.417969 152.933594 230.367188 153.875 230.285156 154.816406 C 230.207031 155.757812 230.097656 156.691406 229.960938 157.628906 C 229.820312 158.5625 229.65625 159.488281 229.460938 160.414062 C 229.265625 161.335938 229.046875 162.253906 228.792969 163.164062 C 228.542969 164.074219 228.265625 164.976562 227.960938 165.871094 C 227.65625 166.761719 227.324219 167.648438 226.964844 168.519531 C 226.605469 169.394531 226.222656 170.253906 225.808594 171.105469 C 225.398438 171.953125 224.960938 172.792969 224.5 173.613281 C 224.035156 174.4375 223.550781 175.246094 223.039062 176.039062 C 222.527344 176.835938 221.992188 177.613281 221.429688 178.375 C 220.871094 179.132812 220.289062 179.878906 219.6875 180.605469 C 219.082031 181.332031 218.457031 182.039062 217.808594 182.726562 C 217.160156 183.414062 216.492188 184.082031 215.804688 184.726562 C 215.117188 185.375 214.410156 186 213.683594 186.605469 C 213.722656 186.679688 213.773438 186.75 213.808594 186.828125 C 213.90625 187.039062 213.992188 187.242188 214.066406 187.46875 C 214.484375 187.394531 214.90625 187.359375 215.332031 187.359375 C 215.839844 187.347656 216.339844 187.402344 216.828125 187.527344 C 217.320312 187.65625 217.785156 187.84375 218.222656 188.097656 C 218.660156 188.355469 219.054688 188.664062 219.40625 189.027344 C 219.753906 189.390625 220.050781 189.796875 220.289062 190.246094 C 220.503906 190.660156 220.664062 191.09375 220.773438 191.546875 C 221.371094 191.621094 221.945312 191.789062 222.488281 192.042969 C 223.035156 192.300781 223.527344 192.636719 223.964844 193.046875 C 224.402344 193.460938 224.769531 193.933594 225.054688 194.460938 C 225.34375 194.988281 225.542969 195.546875 225.652344 196.140625 C 227.789062 194.171875 229.777344 192.0625 231.613281 189.8125 C 233.453125 187.5625 235.121094 185.195312 236.625 182.707031 C 238.128906 180.222656 239.445312 177.644531 240.585938 174.972656 C 241.722656 172.300781 242.664062 169.5625 243.414062 166.761719 C 244.164062 163.957031 244.714844 161.113281 245.058594 158.230469 C 245.40625 155.347656 245.550781 152.457031 245.488281 149.554688 C 245.425781 146.652344 245.160156 143.769531 244.6875 140.90625 C 244.21875 138.042969 243.546875 135.222656 242.679688 132.453125 C 241.808594 129.683594 240.75 126.988281 239.5 124.367188 C 238.246094 121.75 236.820312 119.230469 235.210938 116.808594 C 233.605469 114.390625 231.832031 112.097656 229.902344 109.929688 C 227.96875 107.757812 225.894531 105.734375 223.675781 103.859375 C 221.457031 101.984375 219.117188 100.269531 216.65625 98.726562 C 214.195312 97.179688 211.636719 95.8125 208.980469 94.625 C 206.328125 93.441406 203.601562 92.445312 200.808594 91.644531 C 198.011719 90.84375 195.175781 90.242188 192.292969 89.839844 Z M 192.308594 89.820312 " fill-opacity="1" fill-rule="nonzero"/><path fill="#513c86" d="M 145.90625 178.027344 C 145.425781 177.363281 144.964844 176.683594 144.519531 175.992188 C 144.074219 175.300781 143.648438 174.597656 143.242188 173.882812 C 142.835938 173.171875 142.445312 172.445312 142.078125 171.710938 C 141.710938 170.976562 141.359375 170.234375 141.03125 169.480469 C 140.703125 168.730469 140.390625 167.96875 140.101562 167.199219 C 139.8125 166.429688 139.546875 165.65625 139.296875 164.871094 C 139.050781 164.089844 138.824219 163.300781 138.617188 162.503906 C 138.410156 161.710938 138.226562 160.910156 138.0625 160.105469 C 137.898438 159.300781 137.757812 158.492188 137.636719 157.679688 C 137.515625 156.867188 137.414062 156.050781 137.339844 155.234375 C 137.261719 154.417969 137.203125 153.597656 137.171875 152.777344 C 137.136719 151.957031 137.125 151.136719 137.132812 150.316406 C 137.144531 149.492188 137.175781 148.671875 137.226562 147.855469 C 137.28125 147.035156 137.355469 146.214844 137.449219 145.402344 C 137.546875 144.585938 137.664062 143.773438 137.804688 142.964844 C 137.945312 142.152344 138.105469 141.347656 138.285156 140.546875 C 138.46875 139.746094 138.671875 138.953125 138.894531 138.160156 C 139.121094 137.371094 139.363281 136.585938 139.628906 135.8125 C 139.894531 135.035156 140.183594 134.265625 140.488281 133.5 C 140.796875 132.738281 141.121094 131.984375 141.46875 131.242188 C 141.816406 130.496094 142.179688 129.761719 142.566406 129.035156 C 142.953125 128.308594 143.355469 127.59375 143.78125 126.890625 C 144.203125 126.1875 144.644531 125.496094 145.105469 124.8125 C 145.566406 124.132812 146.042969 123.464844 146.539062 122.808594 C 147.035156 122.152344 147.546875 121.511719 148.074219 120.882812 C 148.605469 120.253906 149.152344 119.640625 149.714844 119.039062 C 150.277344 118.441406 150.851562 117.855469 151.445312 117.285156 C 152.039062 116.71875 152.648438 116.164062 153.269531 115.628906 C 153.890625 115.089844 154.527344 114.570312 155.179688 114.066406 C 155.828125 113.5625 156.492188 113.078125 157.167969 112.609375 C 157.84375 112.140625 158.53125 111.691406 159.230469 111.257812 C 159.929688 110.824219 160.640625 110.410156 161.363281 110.015625 L 175.261719 89.828125 C 174.253906 89.96875 173.25 90.136719 172.25 90.324219 C 171.25 90.515625 170.253906 90.730469 169.265625 90.96875 C 168.277344 91.207031 167.292969 91.472656 166.320312 91.761719 C 165.34375 92.046875 164.375 92.359375 163.414062 92.695312 C 162.453125 93.03125 161.5 93.390625 160.558594 93.773438 C 159.613281 94.15625 158.683594 94.5625 157.757812 94.988281 C 156.835938 95.417969 155.925781 95.867188 155.023438 96.34375 C 154.125 96.816406 153.234375 97.3125 152.359375 97.828125 C 151.484375 98.347656 150.621094 98.882812 149.773438 99.445312 C 148.921875 100.003906 148.085938 100.585938 147.265625 101.1875 C 146.445312 101.785156 145.640625 102.40625 144.851562 103.046875 C 144.0625 103.691406 143.289062 104.347656 142.53125 105.027344 C 141.773438 105.707031 141.035156 106.40625 140.3125 107.121094 C 139.589844 107.835938 138.882812 108.566406 138.199219 109.316406 C 137.511719 110.070312 136.84375 110.835938 136.195312 111.617188 C 135.546875 112.402344 134.917969 113.199219 134.308594 114.015625 C 133.703125 114.828125 133.113281 115.65625 132.546875 116.5 C 131.976562 117.34375 131.429688 118.199219 130.90625 119.070312 C 130.378906 119.941406 129.875 120.820312 129.394531 121.71875 C 128.914062 122.613281 128.453125 123.519531 128.015625 124.4375 C 127.582031 125.351562 127.167969 126.28125 126.777344 127.21875 C 126.386719 128.15625 126.019531 129.105469 125.671875 130.058594 C 125.328125 131.015625 125.007812 131.980469 124.714844 132.953125 C 124.417969 133.925781 124.144531 134.902344 123.898438 135.886719 C 123.648438 136.871094 123.425781 137.863281 123.226562 138.859375 C 123.027344 139.855469 122.855469 140.855469 122.707031 141.863281 C 122.558594 142.867188 122.433594 143.875 122.332031 144.886719 C 122.234375 145.898438 122.160156 146.910156 122.109375 147.925781 C 122.0625 148.9375 122.039062 149.953125 122.039062 150.96875 C 122.039062 151.984375 122.066406 153 122.117188 154.015625 C 122.167969 155.03125 122.246094 156.042969 122.347656 157.054688 C 122.449219 158.066406 122.574219 159.070312 122.726562 160.078125 C 127.863281 167.011719 136.648438 173.984375 145.90625 178.027344 Z M 145.90625 178.027344 " fill-opacity="1" fill-rule="nonzero"/><path fill="#26629b" d="M 216.847656 196.15625 C 219.984375 191.722656 216.3125 187.375 210.078125 192.902344 C 213.117188 189.289062 210.714844 184.78125 206.125 187.113281 C 203.019531 188.691406 201.839844 190.988281 197.15625 193.847656 C 186.425781 200.402344 173.671875 197.078125 170.324219 193.757812 C 178.460938 192.933594 183.457031 190.621094 188.074219 186.5625 C 191.789062 183.289062 191.042969 175.195312 176.980469 181.203125 C 154.972656 190.613281 131.859375 178.066406 123.9375 166.148438 C 124.253906 167.382812 124.609375 168.605469 125 169.816406 C 125.394531 171.027344 125.824219 172.226562 126.289062 173.410156 C 126.757812 174.59375 127.261719 175.765625 127.800781 176.917969 C 128.339844 178.070312 128.914062 179.207031 129.523438 180.324219 C 130.132812 181.445312 130.777344 182.542969 131.457031 183.621094 C 132.136719 184.699219 132.847656 185.753906 133.589844 186.789062 C 134.335938 187.824219 135.109375 188.832031 135.914062 189.820312 C 136.722656 190.804688 137.558594 191.765625 138.425781 192.699219 C 139.292969 193.636719 140.1875 194.542969 141.109375 195.421875 C 142.03125 196.300781 142.980469 197.152344 143.953125 197.972656 C 144.929688 198.792969 145.929688 199.582031 146.953125 200.339844 C 147.976562 201.097656 149.023438 201.824219 150.09375 202.519531 C 151.164062 203.214844 152.253906 203.875 153.363281 204.5 C 154.476562 205.128906 155.605469 205.71875 156.75 206.277344 C 157.898438 206.832031 159.0625 207.351562 160.242188 207.839844 C 161.421875 208.324219 162.613281 208.769531 163.820312 209.183594 C 165.027344 209.59375 166.246094 209.964844 167.476562 210.300781 C 168.707031 210.636719 169.949219 210.933594 171.195312 211.195312 C 172.445312 211.453125 173.699219 211.671875 174.964844 211.855469 C 176.226562 212.035156 177.492188 212.179688 178.765625 212.28125 C 180.035156 212.382812 181.308594 212.449219 182.585938 212.472656 C 183.859375 212.496094 185.136719 212.480469 186.410156 212.425781 C 187.683594 212.371094 188.957031 212.277344 190.222656 212.144531 C 191.492188 212.011719 192.753906 211.839844 194.011719 211.628906 C 195.269531 211.417969 196.523438 211.167969 197.765625 210.878906 C 199.007812 210.589844 200.238281 210.265625 201.460938 209.898438 C 202.683594 209.535156 203.890625 209.132812 205.089844 208.691406 C 206.285156 208.253906 207.46875 207.777344 208.636719 207.265625 C 209.804688 206.75 210.953125 206.203125 212.089844 205.617188 C 213.222656 205.035156 214.335938 204.417969 215.429688 203.765625 C 216.527344 203.109375 217.601562 202.425781 218.652344 201.707031 C 219.707031 200.988281 220.734375 200.234375 221.742188 199.453125 C 224.605469 197.027344 221.25 191.785156 216.847656 196.15625 Z M 216.847656 196.15625 " fill-opacity="1" fill-rule="nonzero"/><g fill="#2f3b69" fill-opacity="1"><g transform="translate(45.363571, 259.546804)"><g><path d="M 1 0 L 11.902344 0 C 15.046875 0 17.089844 -1.5625 17.089844 -3.945312 C 17.089844 -5.570312 16.027344 -6.890625 14.40625 -7.273438 L 14.40625 -7.292969 C 15.789062 -7.714844 16.6875 -8.894531 16.6875 -10.339844 C 16.6875 -12.683594 14.765625 -14.203125 11.820312 -14.203125 L 1 -14.203125 Z M 3.785156 -8.175781 L 3.785156 -12.320312 L 11.140625 -12.320312 C 12.824219 -12.320312 13.902344 -11.519531 13.902344 -10.238281 C 13.902344 -8.976562 12.824219 -8.175781 11.160156 -8.175781 Z M 3.785156 -1.882812 L 3.785156 -6.429688 L 11.179688 -6.429688 C 13.0625 -6.429688 14.304688 -5.507812 14.304688 -4.167969 C 14.304688 -2.785156 13.0625 -1.882812 11.179688 -1.882812 Z M 3.785156 -1.882812 "/></g></g></g><g fill="#2f3b69" fill-opacity="1"><g transform="translate(62.866609, 259.546804)"><g><path d="M 1 0 L 3.765625 0 L 3.765625 -14.203125 L 1 -14.203125 Z M 1 0 "/></g></g></g><g fill="#2f3b69" fill-opacity="1"><g transform="translate(67.632887, 259.546804)"><g><path d="M 1 0 L 15.328125 0 L 15.328125 -2.023438 L 3.707031 -2.023438 L 3.707031 -6.371094 L 14.324219 -6.371094 L 14.324219 -8.234375 L 3.707031 -8.234375 L 3.707031 -12.160156 L 15.125 -12.160156 L 15.125 -14.203125 L 1 -14.203125 Z M 1 0 "/></g></g></g><g fill="#2f3b69" fill-opacity="1"><g transform="translate(83.353582, 259.546804)"><g><path d="M 1 0 L 3.6875 0 L 3.6875 -11.5 L 3.707031 -11.5 L 13.882812 0 L 17.371094 0 L 17.371094 -14.203125 L 14.664062 -14.203125 L 14.664062 -2.726562 L 14.644531 -2.726562 L 4.488281 -14.203125 L 1 -14.203125 Z M 1 0 "/></g></g></g><g fill="#2f3b69" fill-opacity="1"><g transform="translate(101.717755, 259.546804)"><g><path d="M 1 0 L 15.328125 0 L 15.328125 -2.023438 L 3.707031 -2.023438 L 3.707031 -6.371094 L 14.324219 -6.371094 L 14.324219 -8.234375 L 3.707031 -8.234375 L 3.707031 -12.160156 L 15.125 -12.160156 L 15.125 -14.203125 L 1 -14.203125 Z M 1 0 "/></g></g></g><g fill="#2f3b69" fill-opacity="1"><g transform="translate(117.438451, 259.546804)"><g><path d="M 9.15625 0.480469 C 13.582031 0.480469 16.550781 -1.363281 16.550781 -4.085938 C 16.550781 -6.371094 14.726562 -7.59375 10.5 -8.175781 L 7.171875 -8.636719 C 4.949219 -8.9375 4.007812 -9.496094 4.007812 -10.457031 C 4.007812 -11.761719 5.769531 -12.660156 8.234375 -12.660156 C 10.699219 -12.660156 12.960938 -11.660156 14.066406 -10.238281 L 15.367188 -11.859375 C 14.105469 -13.523438 11.359375 -14.6875 8.214844 -14.6875 C 4.148438 -14.6875 1.261719 -13.023438 1.261719 -10.277344 C 1.261719 -8.074219 2.84375 -6.953125 6.550781 -6.472656 L 9.917969 -5.949219 C 12.640625 -5.570312 13.804688 -4.910156 13.804688 -3.847656 C 13.804688 -2.542969 12 -1.582031 9.296875 -1.582031 C 5.992188 -1.582031 2.945312 -2.984375 1.902344 -5.007812 L 0.402344 -3.40625 C 1.742188 -1.121094 5.210938 0.480469 9.15625 0.480469 Z M 9.15625 0.480469 "/></g></g></g><g fill="#2f3b69" fill-opacity="1"><g transform="translate(134.380753, 259.546804)"><g><path d="M 6.492188 0 L 9.277344 0 L 9.277344 -12.019531 L 15.648438 -12.019531 L 15.648438 -14.203125 L 0.121094 -14.203125 L 0.121094 -12.019531 L 6.492188 -12.019531 Z M 6.492188 0 "/></g></g></g><g fill="#2f3b69" fill-opacity="1"><g transform="translate(150.141505, 259.546804)"><g><path d="M 0.0820312 0 L 2.984375 0 L 4.609375 -3.105469 L 13.503906 -3.105469 L 15.125 0 L 18.050781 0 L 10.71875 -14.203125 L 7.472656 -14.203125 Z M 5.429688 -5.046875 L 9.054688 -12.179688 L 9.097656 -12.179688 L 12.703125 -5.046875 Z M 5.429688 -5.046875 "/></g></g></g><g fill="#2f3b69" fill-opacity="1"><g transform="translate(168.265367, 259.546804)"><g><path d="M 15.847656 0.402344 C 16.949219 0.402344 17.972656 -0.140625 18.574219 -0.882812 L 17.730469 -2.203125 C 17.429688 -1.742188 16.988281 -1.421875 16.550781 -1.421875 C 16.007812 -1.421875 15.726562 -1.804688 15.488281 -2.285156 L 14.484375 -4.308594 C 14.144531 -5.070312 13.683594 -5.648438 13.003906 -6.011719 L 13.003906 -6.03125 C 15.605469 -6.3125 17.210938 -7.832031 17.210938 -9.957031 C 17.210938 -12.582031 15.144531 -14.203125 11.820312 -14.203125 L 1 -14.203125 L 1 0 L 3.785156 0 L 3.785156 -5.507812 L 9.578125 -5.507812 C 10.578125 -5.507812 11.421875 -4.886719 11.902344 -3.886719 L 12.984375 -1.582031 C 13.523438 -0.519531 14.34375 0.402344 15.847656 0.402344 Z M 3.785156 -7.433594 L 3.785156 -12.222656 L 11.238281 -12.222656 C 13.183594 -12.222656 14.425781 -11.28125 14.425781 -9.796875 C 14.425781 -8.375 13.183594 -7.433594 11.238281 -7.433594 Z M 3.785156 -7.433594 "/></g></g></g><g fill="#2f3b69" fill-opacity="1"><g transform="translate(186.829805, 259.546804)"><g/></g></g><g fill="#2f3b69" fill-opacity="1"><g transform="translate(192.617426, 259.546804)"><g><path d="M 9.15625 0.480469 C 13.582031 0.480469 16.550781 -1.363281 16.550781 -4.085938 C 16.550781 -6.371094 14.726562 -7.59375 10.5 -8.175781 L 7.171875 -8.636719 C 4.949219 -8.9375 4.007812 -9.496094 4.007812 -10.457031 C 4.007812 -11.761719 5.769531 -12.660156 8.234375 -12.660156 C 10.699219 -12.660156 12.960938 -11.660156 14.066406 -10.238281 L 15.367188 -11.859375 C 14.105469 -13.523438 11.359375 -14.6875 8.214844 -14.6875 C 4.148438 -14.6875 1.261719 -13.023438 1.261719 -10.277344 C 1.261719 -8.074219 2.84375 -6.953125 6.550781 -6.472656 L 9.917969 -5.949219 C 12.640625 -5.570312 13.804688 -4.910156 13.804688 -3.847656 C 13.804688 -2.542969 12 -1.582031 9.296875 -1.582031 C 5.992188 -1.582031 2.945312 -2.984375 1.902344 -5.007812 L 0.402344 -3.40625 C 1.742188 -1.121094 5.210938 0.480469 9.15625 0.480469 Z M 9.15625 0.480469 "/></g></g></g><g fill="#2f3b69" fill-opacity="1"><g transform="translate(209.559728, 259.546804)"><g><path d="M 1 0 L 15.328125 0 L 15.328125 -2.023438 L 3.707031 -2.023438 L 3.707031 -6.371094 L 14.324219 -6.371094 L 14.324219 -8.234375 L 3.707031 -8.234375 L 3.707031 -12.160156 L 15.125 -12.160156 L 15.125 -14.203125 L 1 -14.203125 Z M 1 0 "/></g></g></g><g fill="#2f3b69" fill-opacity="1"><g transform="translate(225.280433, 259.546804)"><g><path d="M 15.847656 0.402344 C 16.949219 0.402344 17.972656 -0.140625 18.574219 -0.882812 L 17.730469 -2.203125 C 17.429688 -1.742188 16.988281 -1.421875 16.550781 -1.421875 C 16.007812 -1.421875 15.726562 -1.804688 15.488281 -2.285156 L 14.484375 -4.308594 C 14.144531 -5.070312 13.683594 -5.648438 13.003906 -6.011719 L 13.003906 -6.03125 C 15.605469 -6.3125 17.210938 -7.832031 17.210938 -9.957031 C 17.210938 -12.582031 15.144531 -14.203125 11.820312 -14.203125 L 1 -14.203125 L 1 0 L 3.785156 0 L 3.785156 -5.507812 L 9.578125 -5.507812 C 10.578125 -5.507812 11.421875 -4.886719 11.902344 -3.886719 L 12.984375 -1.582031 C 13.523438 -0.519531 14.34375 0.402344 15.847656 0.402344 Z M 3.785156 -7.433594 L 3.785156 -12.222656 L 11.238281 -12.222656 C 13.183594 -12.222656 14.425781 -11.28125 14.425781 -9.796875 C 14.425781 -8.375 13.183594 -7.433594 11.238281 -7.433594 Z M 3.785156 -7.433594 "/></g></g></g><g fill="#2f3b69" fill-opacity="1"><g transform="translate(243.844861, 259.546804)"><g><path d="M 7.351562 0 L 10.457031 0 L 17.832031 -14.203125 L 14.847656 -14.203125 L 8.9375 -2.605469 L 8.894531 -2.605469 L 2.964844 -14.203125 L 0 -14.203125 Z M 7.351562 0 "/></g></g></g><g fill="#2f3b69" fill-opacity="1"><g transform="translate(261.668323, 259.546804)"><g><path d="M 1 0 L 3.765625 0 L 3.765625 -14.203125 L 1 -14.203125 Z M 1 0 "/></g></g></g><g fill="#2f3b69" fill-opacity="1"><g transform="translate(266.434611, 259.546804)"><g><path d="M 10.558594 0.460938 C 15.167969 0.460938 18.710938 -1.664062 19.675781 -5.007812 L 17.089844 -5.609375 C 16.367188 -3.226562 13.863281 -1.703125 10.597656 -1.703125 C 6.289062 -1.703125 3.546875 -3.808594 3.546875 -7.09375 C 3.546875 -10.378906 6.050781 -12.480469 9.976562 -12.480469 C 12.824219 -12.480469 15.046875 -11.140625 15.726562 -9.015625 L 18.25 -9.757812 C 17.210938 -12.742188 13.964844 -14.644531 9.917969 -14.644531 C 4.308594 -14.644531 0.761719 -11.699219 0.761719 -7.09375 C 0.761719 -2.445312 4.566406 0.460938 10.558594 0.460938 Z M 10.558594 0.460938 "/></g></g></g><g fill="#2f3b69" fill-opacity="1"><g transform="translate(286.641216, 259.546804)"><g><path d="M 1 0 L 3.765625 0 L 3.765625 -14.203125 L 1 -14.203125 Z M 1 0 "/></g></g></g><g fill="#2f3b69" fill-opacity="1"><g transform="translate(291.407484, 259.546804)"><g><path d="M 10.636719 0.5 C 16.527344 0.5 20.535156 -2.585938 20.535156 -7.09375 C 20.535156 -11.582031 16.527344 -14.707031 10.636719 -14.707031 C 4.769531 -14.707031 0.761719 -11.582031 0.761719 -7.09375 C 0.761719 -2.585938 4.769531 0.5 10.636719 0.5 Z M 10.636719 -1.664062 C 6.453125 -1.664062 3.546875 -3.886719 3.546875 -7.09375 C 3.546875 -10.296875 6.453125 -12.523438 10.636719 -12.523438 C 14.824219 -12.523438 17.75 -10.296875 17.75 -7.09375 C 17.75 -3.886719 14.824219 -1.664062 10.636719 -1.664062 Z M 10.636719 -1.664062 "/></g></g></g><g fill="#2f3b69" fill-opacity="1"><g transform="translate(312.695513, 259.546804)"><g><path d="M 9.15625 0.480469 C 13.582031 0.480469 16.550781 -1.363281 16.550781 -4.085938 C 16.550781 -6.371094 14.726562 -7.59375 10.5 -8.175781 L 7.171875 -8.636719 C 4.949219 -8.9375 4.007812 -9.496094 4.007812 -10.457031 C 4.007812 -11.761719 5.769531 -12.660156 8.234375 -12.660156 C 10.699219 -12.660156 12.960938 -11.660156 14.066406 -10.238281 L 15.367188 -11.859375 C 14.105469 -13.523438 11.359375 -14.6875 8.214844 -14.6875 C 4.148438 -14.6875 1.261719 -13.023438 1.261719 -10.277344 C 1.261719 -8.074219 2.84375 -6.953125 6.550781 -6.472656 L 9.917969 -5.949219 C 12.640625 -5.570312 13.804688 -4.910156 13.804688 -3.847656 C 13.804688 -2.542969 12 -1.582031 9.296875 -1.582031 C 5.992188 -1.582031 2.945312 -2.984375 1.902344 -5.007812 L 0.402344 -3.40625 C 1.742188 -1.121094 5.210938 0.480469 9.15625 0.480469 Z M 9.15625 0.480469 "/></g></g></g><g fill="#2f3b69" fill-opacity="1"><g transform="translate(102.059413, 278.404775)"><g><path d="M 1 0 L 9.917969 0 C 15.285156 0 18.273438 -2.542969 18.273438 -7.09375 C 18.273438 -11.660156 15.285156 -14.203125 9.917969 -14.203125 L 1 -14.203125 Z M 3.746094 -2.105469 L 3.746094 -12.0625 L 9.675781 -12.0625 C 13.445312 -12.0625 15.546875 -10.296875 15.546875 -7.09375 C 15.546875 -3.886719 13.445312 -2.105469 9.675781 -2.105469 Z M 3.746094 -2.105469 "/></g></g></g><g fill="#2f3b69" fill-opacity="1"><g transform="translate(121.084458, 278.404775)"><g><path d="M 1 0 L 15.328125 0 L 15.328125 -2.023438 L 3.707031 -2.023438 L 3.707031 -6.371094 L 14.324219 -6.371094 L 14.324219 -8.234375 L 3.707031 -8.234375 L 3.707031 -12.160156 L 15.125 -12.160156 L 15.125 -14.203125 L 1 -14.203125 Z M 1 0 "/></g></g></g><g fill="#2f3b69" fill-opacity="1"><g transform="translate(136.805154, 278.404775)"><g/></g></g><g fill="#2f3b69" fill-opacity="1"><g transform="translate(142.592775, 278.404775)"><g><path d="M 9.15625 0.480469 C 13.582031 0.480469 16.550781 -1.363281 16.550781 -4.085938 C 16.550781 -6.371094 14.726562 -7.59375 10.5 -8.175781 L 7.171875 -8.636719 C 4.949219 -8.9375 4.007812 -9.496094 4.007812 -10.457031 C 4.007812 -11.761719 5.769531 -12.660156 8.234375 -12.660156 C 10.699219 -12.660156 12.960938 -11.660156 14.066406 -10.238281 L 15.367188 -11.859375 C 14.105469 -13.523438 11.359375 -14.6875 8.214844 -14.6875 C 4.148438 -14.6875 1.261719 -13.023438 1.261719 -10.277344 C 1.261719 -8.074219 2.84375 -6.953125 6.550781 -6.472656 L 9.917969 -5.949219 C 12.640625 -5.570312 13.804688 -4.910156 13.804688 -3.847656 C 13.804688 -2.542969 12 -1.582031 9.296875 -1.582031 C 5.992188 -1.582031 2.945312 -2.984375 1.902344 -5.007812 L 0.402344 -3.40625 C 1.742188 -1.121094 5.210938 0.480469 9.15625 0.480469 Z M 9.15625 0.480469 "/></g></g></g><g fill="#2f3b69" fill-opacity="1"><g transform="translate(159.535077, 278.404775)"><g><path d="M 0.0820312 0 L 2.984375 0 L 4.609375 -3.105469 L 13.503906 -3.105469 L 15.125 0 L 18.050781 0 L 10.71875 -14.203125 L 7.472656 -14.203125 Z M 5.429688 -5.046875 L 9.054688 -12.179688 L 9.097656 -12.179688 L 12.703125 -5.046875 Z M 5.429688 -5.046875 "/></g></g></g><g fill="#2f3b69" fill-opacity="1"><g transform="translate(177.658939, 278.404775)"><g><path d="M 1 0 L 12.882812 0 L 12.882812 -2.203125 L 3.785156 -2.203125 L 3.785156 -14.203125 L 1 -14.203125 Z M 1 0 "/></g></g></g><g fill="#2f3b69" fill-opacity="1"><g transform="translate(190.6961, 278.404775)"><g><path d="M 8.996094 0.460938 C 13.984375 0.460938 17.210938 -2.023438 17.210938 -6.472656 L 17.210938 -14.203125 L 14.425781 -14.203125 L 14.425781 -6.550781 C 14.425781 -3.367188 12.28125 -1.761719 9.015625 -1.761719 C 5.769531 -1.761719 3.605469 -3.367188 3.605469 -6.550781 L 3.605469 -14.203125 L 0.800781 -14.203125 L 0.800781 -6.472656 C 0.800781 -2.023438 4.027344 0.460938 8.996094 0.460938 Z M 8.996094 0.460938 "/></g></g></g><g fill="#2f3b69" fill-opacity="1"><g transform="translate(208.699802, 278.404775)"><g><path d="M 1 0 L 9.917969 0 C 15.285156 0 18.273438 -2.542969 18.273438 -7.09375 C 18.273438 -11.660156 15.285156 -14.203125 9.917969 -14.203125 L 1 -14.203125 Z M 3.746094 -2.105469 L 3.746094 -12.0625 L 9.675781 -12.0625 C 13.445312 -12.0625 15.546875 -10.296875 15.546875 -7.09375 C 15.546875 -3.886719 13.445312 -2.105469 9.675781 -2.105469 Z M 3.746094 -2.105469 "/></g></g></g><g fill="#2f3b69" fill-opacity="1"><g transform="translate(227.724847, 278.404775)"><g/></g></g><g fill="#2f3b69" fill-opacity="1"><g transform="translate(233.512469, 278.404775)"><g><path d="M 9.15625 0.480469 C 13.582031 0.480469 16.550781 -1.363281 16.550781 -4.085938 C 16.550781 -6.371094 14.726562 -7.59375 10.5 -8.175781 L 7.171875 -8.636719 C 4.949219 -8.9375 4.007812 -9.496094 4.007812 -10.457031 C 4.007812 -11.761719 5.769531 -12.660156 8.234375 -12.660156 C 10.699219 -12.660156 12.960938 -11.660156 14.066406 -10.238281 L 15.367188 -11.859375 C 14.105469 -13.523438 11.359375 -14.6875 8.214844 -14.6875 C 4.148438 -14.6875 1.261719 -13.023438 1.261719 -10.277344 C 1.261719 -8.074219 2.84375 -6.953125 6.550781 -6.472656 L 9.917969 -5.949219 C 12.640625 -5.570312 13.804688 -4.910156 13.804688 -3.847656 C 13.804688 -2.542969 12 -1.582031 9.296875 -1.582031 C 5.992188 -1.582031 2.945312 -2.984375 1.902344 -5.007812 L 0.402344 -3.40625 C 1.742188 -1.121094 5.210938 0.480469 9.15625 0.480469 Z M 9.15625 0.480469 "/></g></g></g><g fill="#2f3b69" fill-opacity="1"><g transform="translate(250.454771, 278.404775)"><g><path d="M 2.183594 0.242188 C 3.105469 0.242188 3.785156 -0.378906 3.785156 -1.242188 C 3.785156 -2.082031 3.105469 -2.703125 2.183594 -2.703125 C 1.242188 -2.703125 0.582031 -2.082031 0.582031 -1.242188 C 0.582031 -0.378906 1.242188 0.242188 2.183594 0.242188 Z M 2.183594 0.242188 "/></g></g></g><g fill="#2f3b69" fill-opacity="1"><g transform="translate(254.820521, 278.404775)"><g><path d="M 0.0820312 0 L 2.984375 0 L 4.609375 -3.105469 L 13.503906 -3.105469 L 15.125 0 L 18.050781 0 L 10.71875 -14.203125 L 7.472656 -14.203125 Z M 5.429688 -5.046875 L 9.054688 -12.179688 L 9.097656 -12.179688 L 12.703125 -5.046875 Z M 5.429688 -5.046875 "/></g></g></g><g fill="#2f3b69" fill-opacity="1"><g transform="translate(130.571784, 296.711465)"><g><path d="M 6.066406 0.136719 C 8.023438 0.136719 9.722656 -0.933594 10.621094 -2.515625 L 9.6875 -3.042969 C 8.992188 -1.785156 7.632812 -0.953125 6.066406 -0.953125 C 3.773438 -0.953125 1.921875 -2.789062 1.921875 -5.097656 C 1.921875 -7.410156 3.773438 -9.246094 6.066406 -9.246094 C 7.632812 -9.246094 8.992188 -8.414062 9.6875 -7.15625 L 10.621094 -7.683594 C 9.722656 -9.261719 8.023438 -10.335938 6.066406 -10.335938 C 3.179688 -10.335938 0.832031 -7.988281 0.832031 -5.097656 C 0.832031 -2.210938 3.179688 0.136719 6.066406 0.136719 Z M 6.066406 0.136719 "/></g></g></g><g fill="#2f3b69" fill-opacity="1"><g transform="translate(141.752615, 296.711465)"><g><path d="M 6.066406 0.136719 C 8.972656 0.136719 11.304688 -2.210938 11.304688 -5.097656 C 11.304688 -7.988281 8.972656 -10.335938 6.066406 -10.335938 C 3.179688 -10.335938 0.832031 -7.988281 0.832031 -5.097656 C 0.832031 -2.210938 3.179688 0.136719 6.066406 0.136719 Z M 6.066406 -0.953125 C 3.773438 -0.953125 1.921875 -2.789062 1.921875 -5.097656 C 1.921875 -7.410156 3.773438 -9.246094 6.066406 -9.246094 C 8.378906 -9.246094 10.214844 -7.410156 10.214844 -5.097656 C 10.214844 -2.789062 8.378906 -0.953125 6.066406 -0.953125 Z M 6.066406 -0.953125 "/></g></g></g><g fill="#2f3b69" fill-opacity="1"><g transform="translate(153.902005, 296.711465)"><g><path d="M 8.566406 -10.199219 L 8.566406 -1.820312 L 2.261719 -10.199219 L 1.242188 -10.199219 L 1.242188 0 L 2.328125 0 L 2.328125 -8.378906 L 8.617188 0 L 9.636719 0 L 9.636719 -10.199219 Z M 8.566406 -10.199219 "/></g></g></g><g fill="#2f3b69" fill-opacity="1"><g transform="translate(164.776981, 296.711465)"><g><path d="M 3.808594 0.136719 C 5.539062 0.136719 6.953125 -0.902344 6.953125 -2.683594 C 6.953125 -6.152344 1.988281 -5.304688 1.988281 -7.734375 C 1.988281 -8.753906 2.820312 -9.246094 3.773438 -9.246094 C 4.554688 -9.246094 5.199219 -8.921875 5.609375 -8.34375 L 6.457031 -9.058594 C 5.898438 -9.773438 4.910156 -10.335938 3.738281 -10.335938 C 2.175781 -10.335938 0.902344 -9.3125 0.902344 -7.648438 C 0.902344 -4.367188 5.863281 -5.183594 5.863281 -2.652344 C 5.863281 -1.5625 4.964844 -0.953125 3.824219 -0.953125 C 2.667969 -0.953125 1.835938 -1.582031 1.480469 -2.515625 L 0.492188 -1.9375 C 1.019531 -0.679688 2.292969 0.136719 3.808594 0.136719 Z M 3.808594 0.136719 "/></g></g></g><g fill="#2f3b69" fill-opacity="1"><g transform="translate(172.219543, 296.711465)"><g><path d="M 5.015625 0.136719 C 7.242188 0.136719 8.855469 -1.34375 8.855469 -3.347656 L 8.855469 -10.199219 L 7.765625 -10.199219 L 7.765625 -3.519531 C 7.765625 -2.039062 6.59375 -0.953125 5.015625 -0.953125 C 3.433594 -0.953125 2.277344 -2.039062 2.277344 -3.519531 L 2.277344 -10.199219 L 1.191406 -10.199219 L 1.191406 -3.347656 C 1.191406 -1.34375 2.804688 0.136719 5.015625 0.136719 Z M 5.015625 0.136719 "/></g></g></g><g fill="#2f3b69" fill-opacity="1"><g transform="translate(182.261905, 296.711465)"><g><path d="M 2.328125 -1.085938 L 2.328125 -10.199219 L 1.242188 -10.199219 L 1.242188 0 L 6.117188 0 L 6.117188 -1.085938 Z M 2.328125 -1.085938 "/></g></g></g><g fill="#2f3b69" fill-opacity="1"><g transform="translate(188.532008, 296.711465)"><g><path d="M 6.882812 -10.199219 L 0.152344 -10.199219 L 0.152344 -9.109375 L 2.972656 -9.109375 L 2.972656 0 L 4.0625 0 L 4.0625 -9.109375 L 6.882812 -9.109375 Z M 6.882812 -10.199219 "/></g></g></g><g fill="#2f3b69" fill-opacity="1"><g transform="translate(195.566759, 296.711465)"><g><path d="M 6.066406 0.136719 C 8.972656 0.136719 11.304688 -2.210938 11.304688 -5.097656 C 11.304688 -7.988281 8.972656 -10.335938 6.066406 -10.335938 C 3.179688 -10.335938 0.832031 -7.988281 0.832031 -5.097656 C 0.832031 -2.210938 3.179688 0.136719 6.066406 0.136719 Z M 6.066406 -0.953125 C 3.773438 -0.953125 1.921875 -2.789062 1.921875 -5.097656 C 1.921875 -7.410156 3.773438 -9.246094 6.066406 -9.246094 C 8.378906 -9.246094 10.214844 -7.410156 10.214844 -5.097656 C 10.214844 -2.789062 8.378906 -0.953125 6.066406 -0.953125 Z M 6.066406 -0.953125 "/></g></g></g><g fill="#2f3b69" fill-opacity="1"><g transform="translate(207.716149, 296.711465)"><g><path d="M 5.371094 -4.65625 C 6.714844 -4.84375 7.734375 -5.964844 7.734375 -7.34375 C 7.734375 -8.941406 6.457031 -10.199219 4.894531 -10.199219 L 1.242188 -10.199219 L 1.242188 0 L 2.328125 0 L 2.328125 -4.605469 L 4.25 -4.605469 L 7.140625 0 L 8.378906 0 Z M 2.328125 -5.644531 L 2.328125 -9.109375 L 4.828125 -9.109375 C 5.847656 -9.109375 6.644531 -8.394531 6.644531 -7.375 C 6.644531 -6.339844 5.863281 -5.644531 4.828125 -5.644531 Z M 2.328125 -5.644531 "/></g></g></g><g fill="#2f3b69" fill-opacity="1"><g transform="translate(216.246209, 296.711465)"><g><path d="M 1.324219 0 L 2.414062 0 L 2.414062 -10.199219 L 1.324219 -10.199219 Z M 1.324219 0 "/></g></g></g><g fill="#2f3b69" fill-opacity="1"><g transform="translate(219.967495, 296.711465)"><g><path d="M 6.066406 0.136719 C 8.972656 0.136719 11.304688 -2.210938 11.304688 -5.097656 C 11.304688 -7.988281 8.972656 -10.335938 6.066406 -10.335938 C 3.179688 -10.335938 0.832031 -7.988281 0.832031 -5.097656 C 0.832031 -2.210938 3.179688 0.136719 6.066406 0.136719 Z M 6.066406 -0.953125 C 3.773438 -0.953125 1.921875 -2.789062 1.921875 -5.097656 C 1.921875 -7.410156 3.773438 -9.246094 6.066406 -9.246094 C 8.378906 -9.246094 10.214844 -7.410156 10.214844 -5.097656 C 10.214844 -2.789062 8.378906 -0.953125 6.066406 -0.953125 Z M 6.066406 -0.953125 "/></g></g></g><g fill="#2f3b69" fill-opacity="1"><g transform="translate(232.116886, 296.711465)"><g><path d="M 3.808594 0.136719 C 5.539062 0.136719 6.953125 -0.902344 6.953125 -2.683594 C 6.953125 -6.152344 1.988281 -5.304688 1.988281 -7.734375 C 1.988281 -8.753906 2.820312 -9.246094 3.773438 -9.246094 C 4.554688 -9.246094 5.199219 -8.921875 5.609375 -8.34375 L 6.457031 -9.058594 C 5.898438 -9.773438 4.910156 -10.335938 3.738281 -10.335938 C 2.175781 -10.335938 0.902344 -9.3125 0.902344 -7.648438 C 0.902344 -4.367188 5.863281 -5.183594 5.863281 -2.652344 C 5.863281 -1.5625 4.964844 -0.953125 3.824219 -0.953125 C 2.667969 -0.953125 1.835938 -1.582031 1.480469 -2.515625 L 0.492188 -1.9375 C 1.019531 -0.679688 2.292969 0.136719 3.808594 0.136719 Z M 3.808594 0.136719 "/></g></g></g></svg>